<svg xmlns="http://www.w3.org/2000/svg" viewBox="0 0 64 64" fill="none">
  <defs>
    <linearGradient id="bg5" x1="0" y1="0" x2="64" y2="64" gradientUnits="userSpaceOnUse">
      <stop offset="0%" stop-color="#1a1a2e"/>
      <stop offset="100%" stop-color="#16132b"/>
    </linearGradient>
  </defs>
  <!-- Dark background -->
  <rect width="64" height="64" rx="14" fill="url(#bg5)"/>
  <!-- Stacked D layers — back to front, offset -->
  <!-- Layer 3 (deepest) — pink, offset right+down -->
  <path d="M22 17h11c7.7 0 14 6.3 14 14s-6.3 14-14 14H22V17zm7 6v16h4c4.4 0 8-3.6 8-8s-3.6-8-8-8h-4z" fill="#ec4899" opacity="0.35"/>
  <!-- Layer 2 — purple, offset slight -->
  <path d="M20.5 15.5h11c7.7 0 14 6.3 14 14s-6.3 14-14 14h-11V15.5zm7 6v16h4c4.4 0 8-3.6 8-8s-3.6-8-8-8h-4z" fill="#a855f7" opacity="0.5"/>
  <!-- Layer 1 — blue, small offset -->
  <path d="M19.25 14.25h11c7.7 0 14 6.3 14 14s-6.3 14-14 14h-11V14.25zm7 6v16h4c4.4 0 8-3.6 8-8s-3.6-8-8-8h-4z" fill="#6366f1" opacity="0.65"/>
  <!-- Front D — white, crisp -->
  <path d="M18 13h11c7.7 0 14 6.3 14 14s-6.3 14-14 14H18V13zm7 6v16h4c4.4 0 8-3.6 8-8s-3.6-8-8-8h-4z" fill="white"/>
</svg>