<svg xmlns="http://www.w3.org/2000/svg" viewBox="0 0 64 64" fill="none">
  <defs>
    <linearGradient id="panel-d" x1="9" y1="8" x2="54" y2="56" gradientUnits="userSpaceOnUse">
      <stop offset="0%" stop-color="#141724"/>
      <stop offset="100%" stop-color="#1c1730"/>
    </linearGradient>
    <clipPath id="d-mask-carved">
      <path d="M18 13h13.5c9.7 0 17.5 8.1 17.5 18s-7.8 18-17.5 18H18V13Z"/>
    </clipPath>
  </defs>
  <rect width="64" height="64" rx="16" fill="url(#panel-d)"/>
  <rect x="0.75" y="0.75" width="62.5" height="62.5" rx="15.25" stroke="#ffffff" stroke-opacity="0.045"/>

  <path d="M18 13h13.5c9.7 0 17.5 8.1 17.5 18s-7.8 18-17.5 18H18V13Z" fill="#ffffff"/>
  <path d="M29 22h2.5c4.8 0 8.5 3.9 8.5 9s-3.7 9-8.5 9H29V22Z" fill="url(#panel-d)"/>

  <g clip-path="url(#d-mask-carved)">
    <rect x="20" y="18" width="8" height="8" rx="2.4" fill="#48b1ff"/>
    <rect x="28.5" y="18" width="8" height="8" rx="2.4" fill="#7a65ff"/>

    <rect x="20" y="28" width="8" height="8" rx="2.4" fill="#7a65ff"/>
    <rect x="28.5" y="28" width="8" height="8" rx="2.4" fill="#b05cff"/>

    <rect x="20" y="38" width="8" height="8" rx="2.4" fill="#f15bb5"/>
    <rect x="28.5" y="38" width="8" height="8" rx="2.4" fill="#ff7abf"/>

    <rect x="36.7" y="17.4" width="8.3" height="8.3" rx="2.4" fill="#ffffff" fill-opacity="0.92"/>
  </g>

  <rect x="42.6" y="13.9" width="8.3" height="8.3" rx="2.4" fill="#ffffff"/>
  <rect x="42.6" y="13.9" width="8.3" height="8.3" rx="2.4" fill="#9be7bb" fill-opacity="0.28"/>
  <rect x="42.6" y="13.9" width="8.3" height="8.3" rx="2.4" stroke="#ffffff" stroke-opacity="0.28"/>
  <path d="M42.2 22.7L39.3 27.7" stroke="#ffffff" stroke-opacity="0.28" stroke-width="1.5" stroke-linecap="round"/>
</svg>
